<svg xmlns="http://www.w3.org/2000/svg" width="950" height="284.351" viewBox="0 0 950 284.351">
  <g id="Grupo_56" data-name="Grupo 56" transform="translate(0)">
    <g id="Grupo_55" data-name="Grupo 55" transform="translate(0)">
      <path id="Caminho_35" data-name="Caminho 35" d="M390.034,131.385c.743-.941,1.419-2.04,2.188-3,.164-.253.329-.507.487-.764.759-1.243,1.462-2.514,2.154-3.795.065-.119.123-.227.179-.327l.074-.2c.425-1.151.92-2.273,1.328-3.432.2-.571.349-1.188.583-1.746.794-1.889-.441,1.53-.388,1.461,1.4-1.808,1.423-6.645,1.618-8.886-.21,2.418-.042-1.28-.04-2,.007-1.476-.041-2.955-.139-4.427-.051-.772-.127-1.541-.2-2.309-.045-.361-.112-.886-.143-1.043-.252-1.32-.5-2.638-.812-3.947a72.933,72.933,0,0,0-2.12-7.245q-.759-2.174-1.647-4.3c-.214-.511-.613-1.36-.749-1.653-.734-1.462-1.487-2.912-2.308-4.33A69.445,69.445,0,0,0,382,68.3q-.981-1.113-2.007-2.186c-.2-.209-1.084-1.091-1.538-1.552-.408-.355-1.346-1.2-1.578-1.393q-1.239-1.032-2.53-2a47.646,47.646,0,0,0-13.475-7.248l-.11-.036c-.079-.01-.275-.052-.664-.146-.851-.206-1.7-.4-2.565-.553q-2-.367-4.02-.539a40.677,40.677,0,0,0-6.75.048,43.059,43.059,0,0,0-5.327,1.163c-.369.106-1.806.575-2.486.785-.528.25-2,.888-2.349,1.065q-1.833.923-3.585,1.991c-.115.07-.388.2-.69.364-.749.615-1.548,1.174-2.3,1.79-1.136.931-2.193,1.938-3.269,2.929-.249.279-.5.559-.742.843-.482.567-.935,1.154-1.411,1.724l-.6.72c-.447.775-.933,1.689-1.166,2.117a5.454,5.454,0,0,1-.6,1.166c-.01.024-.027.053-.036.076-.592,1.42-1.092,2.864-1.6,4.313-.028.08-.053.149-.077.218s-.037.174-.059.274c-.259,1.207-.539,2.408-.758,3.623-.247,1.362-.33,2.776-.617,4.127-.023.321-.048.643-.065.963q-.159,3.131-.07,6.27c.057,2.022.22,4.031.395,6.045.255.974.252,1.728.164,1.372.008.049.012.1.02.147a64.715,64.715,0,0,0,2.439,9.758c.5,1.513,1.084,2.99,1.669,4.472a6.944,6.944,0,0,0,.88,1.913,82.466,82.466,0,0,0,4.346,7.387,87.262,87.262,0,0,0,10.688,12.959,51.905,51.905,0,0,0,4.764,4.4q3.09,2.62,6.34,5.044c4.133,3.1,8.428,5.969,12.811,8.7.862.537,1.731,1.061,2.6,1.59l.649-.468c.619-.456,1.24-.909,1.857-1.367q2.125-1.58,4.207-3.214,3.73-2.938,7.285-6.087,1.845-1.643,3.629-3.35c1.167-1.119,2.763-2.93.683-.614C386.3,135.759,388.243,133.65,390.034,131.385Z" transform="translate(41.904 6.903)" fill="none"/>
      <path id="Caminho_36" data-name="Caminho 36" d="M875.537,209.777A842.155,842.155,0,0,1,710.7,228.942c-29.507.456-59.257-.174-88.584-3.742a655.036,655.036,0,0,1-112.565-23.871,498.112,498.112,0,0,1-71.015-27.821q-3.71-1.806-7.39-3.685c12.334-11.349,22.77-24.511,29.459-40.378,15.929-37.781-.589-91.915-42.49-104.827C393.708,17.1,368.48,30.471,353.275,49.4,336.561,70.2,331.187,97.259,335.66,123.2c3.909,22.665,19.072,40.9,36.819,54.564.079.061.162.12.241.181q-12.2,6.24-24.84,11.546c-.546.23-2.273.942-2.867,1.189l-1.139.454c-.9.351-1.793.709-2.693,1.059q-4.343,1.69-8.725,3.282-8.562,3.114-17.247,5.87-16.616,5.283-33.589,9.344A524.028,524.028,0,0,1,227.5,220.74q-4.952.652-9.917,1.2-2.137.236-4.277.45-.906.092-1.813.179l-.506.048c-.615.052-1.609.138-1.967.166q-1.42.115-2.841.216c-1.169.083-2.339.16-3.508.222-26.393,1.4-55.816,1.79-82.1-.853-49.379-4.967-52.619-6.845-98.176-24a11.357,11.357,0,0,0-3.031-.905,12.954,12.954,0,0,0-4.494.282c-3.155.8-7.733,5.256-10.972,11.232-2.626,4.844-7.447,18.324.364,21.688,45.254,19.487,50.175,18.337,69.464,22.93,42.494,10.117,97.914,7.126,141.453,2.755,39.821-4,71.288-13.209,108.969-26.7,25.692-9.2,50.758-20.551,73.877-35.115a416.84,416.84,0,0,0,41.505,20.142c45.09,19.342,93.071,32.3,141.406,40.423a580.248,580.248,0,0,0,78.893,7.586,863.539,863.539,0,0,0,161.855-10.533q23.893-3.8,47.549-8.927c8.318-1.791,15.012-12.1,16.191-20.037C886.444,216.32,884.217,207.908,875.537,209.777ZM434.3,87.72c.136.293.535,1.142.749,1.653q.888,2.125,1.647,4.3a72.933,72.933,0,0,1,2.12,7.245c.309,1.309.56,2.627.812,3.947.031.157.1.682.143,1.043.078.768.154,1.538.2,2.309.1,1.472.146,2.951.139,4.427,0,.721-.171,4.418.04,2-.195,2.241-.215,7.078-1.618,8.886-.053.069,1.182-3.35.388-1.461-.234.558-.381,1.174-.583,1.746-.408,1.159-.9,2.281-1.328,3.432l-.074.2c-.055.1-.114.208-.179.327-.692,1.281-1.395,2.551-2.154,3.795-.157.257-.322.51-.487.764-.769.957-1.445,2.056-2.188,3-1.791,2.265-3.735,4.374-5.661,6.52,2.08-2.316.483-.5-.683.614q-1.782,1.711-3.629,3.35-3.547,3.157-7.285,6.087-2.079,1.638-4.207,3.214c-.617.458-1.238.911-1.857,1.367l-.649.468c-.868-.528-1.737-1.052-2.6-1.59-4.383-2.728-8.678-5.6-12.811-8.7q-3.241-2.429-6.34-5.044a51.905,51.905,0,0,1-4.764-4.4,87.263,87.263,0,0,1-10.688-12.959,82.466,82.466,0,0,1-4.346-7.387,6.944,6.944,0,0,1-.88-1.913c-.585-1.482-1.164-2.96-1.669-4.472a64.715,64.715,0,0,1-2.439-9.758c-.008-.048-.012-.1-.02-.147.088.355.091-.4-.164-1.372-.175-2.014-.338-4.023-.395-6.045q-.087-3.135.07-6.27c.017-.32.042-.642.065-.963.286-1.351.37-2.765.617-4.127.22-1.215.5-2.416.758-3.623.022-.1.041-.191.059-.274s.049-.138.077-.218c.511-1.449,1.011-2.893,1.6-4.313.009-.023.026-.052.036-.076a5.454,5.454,0,0,0,.6-1.166c.233-.428.72-1.342,1.166-2.117l.6-.72c.476-.57.929-1.157,1.411-1.724.242-.284.493-.563.742-.843,1.076-.991,2.133-2,3.269-2.929.751-.615,1.55-1.174,2.3-1.79.3-.16.575-.294.69-.364q1.751-1.067,3.585-1.991c.352-.176,1.82-.815,2.349-1.065.68-.21,2.117-.679,2.486-.785a43.059,43.059,0,0,1,5.327-1.163,40.677,40.677,0,0,1,6.75-.048q2.023.173,4.02.539c.861.157,1.714.347,2.565.553.389.094.585.136.664.146l.11.036a47.645,47.645,0,0,1,13.475,7.248q1.293.964,2.53,2c.232.193,1.17,1.037,1.578,1.393.454.462,1.336,1.343,1.538,1.552q1.027,1.071,2.007,2.186" transform="translate(0 2.955)" fill="#30ff8e"/>
      <path id="Caminho_37" data-name="Caminho 37" d="M842.345,190.745,794.377,147.87c-4.678-4.183-11.11-2.731-13.732,3.068-2.747,6.079-.971,14.669,3.932,19.05q18.164,16.234,36.326,32.47l-31.969,38.716c-4.281,5.185-3.354,13.97.321,19.209,3.452,4.924,10.028,7.018,14.283,1.865l41.209-49.907C849.668,206.38,847.792,195.615,842.345,190.745Z" transform="translate(102.404 19.114)" fill="#30ff8e"/>
      <g id="Grupo_54" data-name="Grupo 54" transform="translate(0.314)">
        <path id="Caminho_38" data-name="Caminho 38" d="M688.145,66.362a30.417,30.417,0,0,0-9.645-6.7,29.284,29.284,0,0,0-12.006-2.46,26.227,26.227,0,0,0-11.43,2.46,26.7,26.7,0,0,0-8.824,6.7A30.351,30.351,0,0,0,640.6,76.2a36.423,36.423,0,0,0,0,23.678,28.231,28.231,0,0,0,5.642,9.6,26.793,26.793,0,0,0,8.824,6.414,27.117,27.117,0,0,0,11.43,2.362,30.3,30.3,0,0,0,12.006-2.362,30.7,30.7,0,0,0,9.645-6.414,29.066,29.066,0,0,0,6.414-9.6,31.445,31.445,0,0,0,0-23.678A31.194,31.194,0,0,0,688.145,66.362Z" transform="translate(83.598 7.516)" fill="none"/>
        <path id="Caminho_39" data-name="Caminho 39" d="M67.409,44.589a17.55,17.55,0,0,0-4.629-4.05A15.864,15.864,0,0,0,56.8,38.416q-2.7-.192-5.064-.337t-5.159-.145H33.268v35.4H51.014q1.736,0,3.086-.1t2.989-.289a15.222,15.222,0,0,0,6.077-1.978A15.842,15.842,0,0,0,67.7,67.012a17.45,17.45,0,0,0,2.8-5.3,19.236,19.236,0,0,0,.965-6.028A16.716,16.716,0,0,0,70.4,49.893,18.808,18.808,0,0,0,67.409,44.589Z" transform="translate(4.057 4.984)" fill="none"/>
        <path id="Caminho_40" data-name="Caminho 40" d="M179.232,59.583a23.348,23.348,0,0,0-6.945-3.761,27.912,27.912,0,0,0-9.113-1.35,18.448,18.448,0,0,0-7.282,1.495,27.471,27.471,0,0,0-6.606,4,34.39,34.39,0,0,0-5.546,5.691,34.921,34.921,0,0,0-4,6.461h49.285a56.921,56.921,0,0,0-4.389-6.943A29.776,29.776,0,0,0,179.232,59.583Z" transform="translate(18.046 7.157)" fill="none"/>
        <path id="Caminho_41" data-name="Caminho 41" d="M115.338,145.522,90.551,98.843a49.532,49.532,0,0,0,9.6-7.185,47.137,47.137,0,0,0,7.571-9.356,46.608,46.608,0,0,0,4.967-11.091,43.137,43.137,0,0,0,1.784-12.489,45.1,45.1,0,0,0-3.713-18.18,47.083,47.083,0,0,0-10.175-14.9A48.557,48.557,0,0,0,85.439,15.562a46.845,46.845,0,0,0-18.614-3.713H4.522a4.017,4.017,0,0,0-3.183,1.206,4.71,4.71,0,0,0-1.061,3.23V150.924a3.948,3.948,0,0,0,1.157,3.134,4.518,4.518,0,0,0,3.086,1.013H33.167q4.435,0,4.436-4.147v-43.5H53.226L76.663,151.5a4.372,4.372,0,0,0,1.688,2.6,4.81,4.81,0,0,0,2.942.964h33.081a4.246,4.246,0,0,0,2.748-.819,2.861,2.861,0,0,0,1.013-2.363,6.622,6.622,0,0,0-1.06-3.183Q116.012,146.874,115.338,145.522ZM74.83,65.135a17.45,17.45,0,0,1-2.8,5.3A15.842,15.842,0,0,1,67.5,74.394a15.222,15.222,0,0,1-6.077,1.978q-1.641.193-2.989.289t-3.086.1H37.6v-35.4h13.31q2.8,0,5.159.145t5.064.337a15.864,15.864,0,0,1,5.979,2.123,17.55,17.55,0,0,1,4.629,4.05,18.808,18.808,0,0,1,2.99,5.3A16.716,16.716,0,0,1,75.8,59.107,19.236,19.236,0,0,1,74.83,65.135Z" transform="translate(-0.278 1.557)" fill="#fff"/>
        <path id="Caminho_42" data-name="Caminho 42" d="M219.318,57.646a62.63,62.63,0,0,0-9.452-11.814,61.48,61.48,0,0,0-12.1-9.259,60.507,60.507,0,0,0-14.129-5.979A56.986,56.986,0,0,0,168.1,28.472a59.144,59.144,0,0,0-16.685,2.314,60.186,60.186,0,0,0-14.66,6.463,58.541,58.541,0,0,0-12.2,9.982A63.165,63.165,0,0,0,115.3,60.01a65.2,65.2,0,0,0-7.957,31.344,60.622,60.622,0,0,0,5.209,25.172,64.09,64.09,0,0,0,14.08,20.109,65.594,65.594,0,0,0,45.619,18.179,58.206,58.206,0,0,0,22.472-4.389,64.241,64.241,0,0,0,19.1-12.2,12.115,12.115,0,0,0,2.508-2.46,5.342,5.342,0,0,0,1.061-3.326,7.488,7.488,0,0,0-.29-2.074,6.431,6.431,0,0,0-1.351-2.266l-10.222-11.574a20.247,20.247,0,0,0-2.942-2.507,4.6,4.6,0,0,0-2.556-.868,4.728,4.728,0,0,0-2.363.627,20.1,20.1,0,0,0-2.652,1.88,20.888,20.888,0,0,1-4.581,3.327,40.084,40.084,0,0,1-6.269,2.8,50.991,50.991,0,0,1-7.089,1.929,36.841,36.841,0,0,1-7.137.723,34.517,34.517,0,0,1-8.2-1.06,27.142,27.142,0,0,1-8.2-3.521,24.493,24.493,0,0,1-6.8-6.606,23.943,23.943,0,0,1-3.906-10.319h69.441a43.836,43.836,0,0,0,9.211-.724,7.27,7.27,0,0,0,4.484-2.6,9.278,9.278,0,0,0,1.5-5.064q.144-3.182.145-8.2a52.27,52.27,0,0,0-2.17-15A57.083,57.083,0,0,0,219.318,57.646ZM143.993,75.537a34.921,34.921,0,0,1,4-6.461,34.39,34.39,0,0,1,5.546-5.691,27.471,27.471,0,0,1,6.606-4,18.448,18.448,0,0,1,7.282-1.495,27.912,27.912,0,0,1,9.113,1.35A23.348,23.348,0,0,1,183.488,63a29.776,29.776,0,0,1,5.4,5.595,56.921,56.921,0,0,1,4.389,6.943Z" transform="translate(13.79 3.741)" fill="#fff"/>
        <path id="Caminho_43" data-name="Caminho 43" d="M283.748,34.045H270.536l.1-26.522a10.786,10.786,0,0,0-1.206-5.449Q268.219,0,264.652,0h-.82a4.747,4.747,0,0,0-.916.1L241.023,7.715a22.312,22.312,0,0,0-5.642,2.845,5.265,5.265,0,0,0-1.977,4.485l-.1,19h-9.934q-7.428,0-7.426,7.33V59.989q0,7.812,7.426,7.812h9.934l.1,81.4q0,7.426,7.425,7.425h21.8a8.562,8.562,0,0,0,5.882-1.88,7.021,7.021,0,0,0,2.123-5.545l-.1-81.4h13.212a6.885,6.885,0,0,0,5.016-1.88q1.928-1.882,1.929-5.932V41.375a7.244,7.244,0,0,0-1.929-5.5A6.991,6.991,0,0,0,283.748,34.045Z" transform="translate(28.06)" fill="#fff"/>
        <path id="Caminho_44" data-name="Caminho 44" d="M600.947,44.331A39.228,39.228,0,0,0,587.3,32.788a41.305,41.305,0,0,0-19.192-4.231,48.37,48.37,0,0,0-13.117,1.731A55.059,55.059,0,0,0,543.8,34.713a43.49,43.49,0,0,0-8.63,5.964,29.745,29.745,0,0,0-5.451,6.25,54.474,54.474,0,0,0-6.365-7.837,35.043,35.043,0,0,0-7.473-5.77,34.278,34.278,0,0,0-9.067-3.559,46.947,46.947,0,0,0-11.042-1.2,48.047,48.047,0,0,0-13.455,1.684,39.543,39.543,0,0,0-9.885,4.28,29.278,29.278,0,0,0-6.848,5.769,29.634,29.634,0,0,0-4.148,6.155l-2.025-8.463q-.484-1.443-1.011-2.788a8.914,8.914,0,0,0-1.4-2.405,6.464,6.464,0,0,0-2.121-1.687,6.641,6.641,0,0,0-2.99-.626H437.327a13.131,13.131,0,0,0-2.652.289,5.97,5.97,0,0,0-2.652,1.351l.578-.288a6.061,6.061,0,0,0-2.265,2.405,7.033,7.033,0,0,0-.82,3.365V145.449a7.737,7.737,0,0,0,1.832,5.4q1.831,2.026,5.979,2.025h21.8a10.21,10.21,0,0,0,2.556-.288,8.843,8.843,0,0,0,2.363-1.061,5.216,5.216,0,0,0,1.879-2.508,9.1,9.1,0,0,0,.628-3.279V82.084a20.508,20.508,0,0,1,2.074-7.908,22.172,22.172,0,0,1,4.435-6.124,19.41,19.41,0,0,1,5.981-3.954,17.394,17.394,0,0,1,6.8-1.4,17.166,17.166,0,0,1,7.283,1.495,16,16,0,0,1,5.5,4.147,18.712,18.712,0,0,1,3.471,6.222,23.97,23.97,0,0,1,1.206,7.715v63.751q0,4.051,1.542,5.449t5.691,1.4h22.279q3.472,0,5.063-1.88a8.385,8.385,0,0,0,1.591-5.545V82.277a20.606,20.606,0,0,1,1.5-7.956,19.107,19.107,0,0,1,4-6.173,18.5,18.5,0,0,1,5.786-4,17.017,17.017,0,0,1,6.945-1.446,17.812,17.812,0,0,1,7.378,1.495,16.2,16.2,0,0,1,5.641,4.147,19.54,19.54,0,0,1,3.617,6.222,22.35,22.35,0,0,1,1.3,7.715v63.751q0,4.051,1.543,5.449t5.691,1.4h22.279q3.471,0,5.062-1.88a8.385,8.385,0,0,0,1.592-5.545V82.277a78.1,78.1,0,0,0-2.7-20.863A51.005,51.005,0,0,0,600.947,44.331Z" transform="translate(56.122 3.752)" fill="#fff"/>
        <path id="Caminho_45" data-name="Caminho 45" d="M735.143,31.558a4.817,4.817,0,0,0-2.508-1.351,13.08,13.08,0,0,0-2.507-.29h-14.37a14.241,14.241,0,0,0-2.989.242,3.593,3.593,0,0,0-1.785.964,6.954,6.954,0,0,0-1.351,2.219q-.626,1.5-1.591,3.906l-2.8,8.776a42.978,42.978,0,0,0-6.074-6.992,37.5,37.5,0,0,0-7.765-5.546,42.634,42.634,0,0,0-9.453-3.665,43.916,43.916,0,0,0-11.139-1.35,62.456,62.456,0,0,0-44.558,18.275A63.223,63.223,0,0,0,607.931,91.74a64.487,64.487,0,0,0,2.219,17.023,62.857,62.857,0,0,0,16.107,27.969,61.879,61.879,0,0,0,27.728,16.154,63.077,63.077,0,0,0,16.83,2.219,37.186,37.186,0,0,0,9.5-1.206,45.759,45.759,0,0,0,15.914-7.667,56.211,56.211,0,0,0,5.931-5.112l1.255,4.341q.579,1.639,1.109,3.038a8.633,8.633,0,0,0,1.3,2.362,5.022,5.022,0,0,0,2.025,1.495,8.487,8.487,0,0,0,3.28.531h19a13.069,13.069,0,0,0,2.507-.288,7.572,7.572,0,0,0,4.437-3.713,8.607,8.607,0,0,0,.579-3.135V37.056a7.768,7.768,0,0,0-.579-3.086A6.193,6.193,0,0,0,735.143,31.558Zm-36.552,72.093a29.066,29.066,0,0,1-6.414,9.6,30.7,30.7,0,0,1-9.645,6.414,30.3,30.3,0,0,1-12.006,2.362,27.117,27.117,0,0,1-11.43-2.362,26.793,26.793,0,0,1-8.824-6.414,28.231,28.231,0,0,1-5.642-9.6,36.423,36.423,0,0,1,0-23.678,30.351,30.351,0,0,1,5.642-9.836,26.7,26.7,0,0,1,8.824-6.7,26.227,26.227,0,0,1,11.43-2.46,29.284,29.284,0,0,1,12.006,2.46,30.417,30.417,0,0,1,9.645,6.7,31.194,31.194,0,0,1,6.414,9.836,31.445,31.445,0,0,1,0,23.678Z" transform="translate(79.565 3.741)" fill="#fff"/>
        <path id="Caminho_46" data-name="Caminho 46" d="M835.439,40.72q-4.244-3.085-7.86-5.4A45.347,45.347,0,0,0,820.3,31.51a40.212,40.212,0,0,0-7.764-2.266,50.691,50.691,0,0,0-9.307-.772,24.849,24.849,0,0,0-8.921,1.495,30.463,30.463,0,0,0-7.185,3.907A42.736,42.736,0,0,0,781,39.37q-2.848,3.089-5.74,6.269a45.067,45.067,0,0,1-1.833-5.208,35.183,35.183,0,0,0-1.784-4.919,12.416,12.416,0,0,0-2.46-3.665,5.216,5.216,0,0,0-3.857-1.446H750.76a9.251,9.251,0,0,0-2.748.433,7.753,7.753,0,0,0-2.508,1.3,6.392,6.392,0,0,0-1.784,2.219,7.037,7.037,0,0,0-.675,3.183V145.461q0,7.426,7.523,7.425h21.7q4.144,0,5.931-1.88a7.769,7.769,0,0,0,1.784-5.545V75.633q2.026-3.277,4.05-5.979a27.367,27.367,0,0,1,4.341-4.629,17.6,17.6,0,0,1,5.159-2.99,18.862,18.862,0,0,1,6.606-1.061,23.17,23.17,0,0,1,9.79,1.978,30.548,30.548,0,0,1,8.439,6.027,10.911,10.911,0,0,0,4.34,1.061q3.856,0,6.461-3.761l8.776-14.949a10.062,10.062,0,0,0,1.639-4.919Q839.586,43.133,835.439,40.72Z" transform="translate(97.319 3.741)" fill="#fff"/>
      </g>
    </g>
  </g>
</svg>
